<?xml version="1.0" encoding="UTF-8"?>
<svg id="Layer_1" data-name="Layer 1" xmlns="http://www.w3.org/2000/svg" viewBox="0 0 515.12 463.66">
  <defs>
    <style>
      .cls-1 {
        fill: #fafff2;
        stroke: #000;
        stroke-miterlimit: 10;
      }

      .cls-2 {
        fill: #fbd5dd;
      }

    </style>
  </defs>
  <path class="cls-1" d="M238.73,19.78c-39.78-1.88-129.22,99.88-159.22,173.88s-59,171-29.41,194.51c29.59,23.51,114.2,49.92,121.41,38.49,7.21-11.43-7-59-9.79-106.77-3.05-52.18,171.79-59.23,185.79-25.23,17.34,42.11,2.04,126.81,8,137,1.77,3.03,105.2-17.57,123-51,28.61-53.71-48.52-192.07-67.61-216.85C334.51,64.66,278.51,21.66,238.73,19.78Zm-47.33,142.66c-.47,1.79-1.21,2.82-2.38,4.2-.74,.88-1.75,1.6-2.81,2.06-.9,.39-1.79,.83-2.72,1.13-.14,.04-.27,.08-.41,.11-.79,.17-1.66,.25-2.47,.34-.97,.11-2.06-.09-2.96-.31-.92-.22-1.89-.56-2.65-1.14-1.28-.76-2.29-1.77-3.05-3.05-.29-.68-.57-1.35-.86-2.03-.41-1.51-.41-3.01,0-4.52,.09-.2,.17-.41,.26-.61-.23-.56-.47-1.11-.7-1.67-.41-1.51-.41-3.01,0-4.52,.29-.68,.57-1.35,.86-2.03,.53-.99,1.26-1.79,2.19-2.39,.82-.75,1.78-1.26,2.89-1.52,1.13-.35,2.26-.41,3.39-.15,1.13,.05,2.19,.39,3.16,1.01,1.52,1.02,3.05,2.18,4.28,3.56,1.66,1.87,3.23,3.94,3.93,6.38,.47,1.64,.48,3.51,.05,5.16Zm61.96,64.08c-2.25,5.32-7.46,7.75-13.08,7.16-10.64-1.11-17.8-9.65-20.73-19.41-.73-2.42,.87-4.81,3.15-5.55,2.35-.76,4.87,.89,5.55,3.15,.28,.93,.59,1.86,.96,2.76,.07,.16,.27,.6,.3,.68,.19,.4,.39,.79,.6,1.18,.42,.77,.87,1.52,1.37,2.25,.01,.02,.45,.6,.49,.67,.23,.28,.46,.56,.7,.82,.59,.65,1.23,1.25,1.9,1.82,.15,.13,.2,.18,.23,.21,.03,.01,.09,.04,.26,.15,.38,.23,.74,.48,1.12,.71,.44,.26,.9,.49,1.36,.72,.07,.03,.06,.03,.09,.04,.15,.06,.3,.12,.45,.17,.83,.29,1.65,.47,2.51,.65,.26,.02,.52,.04,.78,.05,.44,.02,.88,0,1.32-.02,.19,0,.25,0,.29,.01,.04-.02,.1-.05,.28-.11,.08-.03,.45-.14,.67-.21,.3-.2,.39-.24,.19-.06-.21,.2-.15,.14,.18-.16,.22-.22,.64-.97,.29-.3,.13-.26,.28-.51,.43-.76,0-.05,.24-.56,.28-.7,.26-.81,.41-1.63,.58-2.46,.06-.31,.08-.39,.09-.42,0,0,0-.08,.03-.38,.06-.58,.11-1.17,.15-1.76,.14-2.1,.12-4.21,.06-6.31-.07-2.53,2.12-4.4,4.51-4.51,2.48-.11,4.45,2.15,4.51,4.51,.13,5.1,.13,10.62-1.88,15.4Zm54.65-59.23c-.26,1.11-.77,2.07-1.52,2.89-.6,.93-1.39,1.66-2.39,2.19-.98,.62-2.03,.96-3.16,1.01-1.13,.25-2.26,.2-3.39-.15-1.09-.44-2.21-.85-3.26-1.41-.98-.52-1.91-1.27-2.71-2-.41-.37-.74-.87-1.07-1.3-.35-.45-.73-.87-.98-1.39-.33-.69-.71-1.53-.95-2.26-.03-.1-.06-.2-.09-.3-.11-.46-.15-1-.21-1.44-.06-.43-.15-.92-.18-1.38-.01-.26,0-.51,.03-.76,.1-.91,.17-1.87,.4-2.76,.3-1.15,.8-2.27,1.39-3.3,.85-1.46,2.01-2.77,3.16-4.01,1.06-1.05,2.31-1.78,3.75-2.19,.75-.1,1.51-.2,2.26-.3,1.53,0,2.97,.39,4.29,1.16,.57,.44,1.15,.89,1.72,1.33,.83,.77,1.42,1.68,1.76,2.74,.53,1.01,.78,2.11,.73,3.28,.04,1.17-.2,2.26-.73,3.28-.01,.04-.04,.07-.05,.11,.1,.14,.21,.27,.31,.41,.77,1.33,1.16,2.76,1.16,4.29-.1,.75-.2,1.51-.3,2.26Z"/>
  <g>
    <path class="cls-2" d="M194.97,195.16c-2.65,1.6-5.52,2.82-8.36,4.06-3.83-1.82-7.77-3.37-11.76-4.81l8.38-4.52c2.24-1.21,.25-4.63-2-3.42-3.81,2.05-7.62,4.11-11.43,6.16-5.75-1.97-11.54-3.86-17.16-6.13-2.36-.95-3.39,2.87-1.05,3.82,4.42,1.78,8.95,3.33,13.48,4.86l-8.91,4.8c-1.65,.89-3.3,1.79-4.96,2.69-3.27-1.03-6.55-2.04-9.82-3.06-2.44-.75-3.48,3.07-1.05,3.82,2,.62,4,1.24,6,1.87-4.9,2.61-9.86,5.12-14.99,7.23-2.32,.96-1.3,4.79,1.05,3.82,6.6-2.73,12.92-6.02,19.2-9.4,3.24,1.02,6.47,2.06,9.7,3.13,.66,.22,1.32,.45,1.99,.67-3.73,2.01-7.44,4.08-11.11,6.21-2.2,1.28-.21,4.7,2,3.42,4.69-2.72,9.43-5.34,14.23-7.87,1.05,.37,2.09,.73,3.13,1.11,3.24,1.17,6.57,2.25,9.48,4.15,2.14,1.4,4.13-2.03,2-3.42-2.83-1.85-6.07-2.96-9.23-4.11-.19-.07-.39-.14-.58-.21,.75-.38,1.49-.77,2.23-1.14,3.56-1.78,7.14-3.5,10.75-5.17,.11-.05,.22-.1,.33-.15,1.68,.84,3.33,1.74,4.95,2.72,2.19,1.32,4.18-2.1,2-3.42-.77-.46-1.55-.91-2.33-1.35,2-.89,3.98-1.83,5.84-2.96,2.18-1.32,.19-4.74-2-3.42Zm-21.54,10.31c-1.79,.9-3.58,1.81-5.36,2.74-1.7-.59-3.41-1.17-5.12-1.75-2.17-.73-4.36-1.41-6.54-2.11,.39-.21,.78-.42,1.17-.63,4.2-2.26,8.39-4.52,12.59-6.79,3.95,1.37,7.87,2.81,11.69,4.47-2.83,1.33-5.64,2.68-8.43,4.07Z"/>
    <path class="cls-2" d="M357.02,195.11c-2.65,1.6-5.52,2.82-8.36,4.06-3.83-1.82-7.77-3.37-11.76-4.81,2.79-1.51,5.59-3.01,8.38-4.52,2.24-1.21,.25-4.63-2-3.42l-11.43,6.16c-5.75-1.97-11.54-3.86-17.16-6.13-2.36-.95-3.39,2.87-1.05,3.82,4.42,1.78,8.95,3.33,13.48,4.86-2.97,1.6-5.94,3.2-8.91,4.8-1.65,.89-3.3,1.79-4.96,2.69-3.27-1.03-6.55-2.04-9.82-3.06-2.44-.75-3.48,3.07-1.05,3.82,2,.62,4,1.24,6,1.87-4.9,2.61-9.86,5.12-14.99,7.23-2.32,.96-1.3,4.79,1.05,3.82,6.6-2.73,12.92-6.02,19.2-9.4,3.24,1.02,6.47,2.06,9.7,3.13,.66,.22,1.32,.45,1.99,.67-3.73,2.01-7.44,4.08-11.11,6.21-2.2,1.28-.21,4.7,2,3.42,4.69-2.72,9.43-5.34,14.23-7.87,1.05,.37,2.09,.73,3.13,1.11,3.24,1.17,6.57,2.25,9.48,4.15,2.14,1.4,4.13-2.03,2-3.42-2.83-1.85-6.07-2.96-9.23-4.11-.19-.07-.39-.14-.58-.21,.75-.38,1.49-.77,2.23-1.14,3.56-1.78,7.14-3.5,10.75-5.17,.11-.05,.22-.1,.33-.15,1.68,.84,3.33,1.74,4.95,2.72,2.19,1.32,4.18-2.1,2-3.42-.77-.46-1.55-.91-2.33-1.35,2-.89,3.98-1.83,5.84-2.96,2.18-1.32,.19-4.74-2-3.42Zm-21.54,10.31c-1.79,.9-3.58,1.81-5.36,2.74-1.7-.59-3.41-1.17-5.12-1.75-2.17-.73-4.36-1.41-6.54-2.11,.39-.21,.78-.42,1.17-.63,4.2-2.26,8.39-4.52,12.59-6.79,3.95,1.37,7.87,2.81,11.69,4.47-2.83,1.33-5.64,2.68-8.43,4.07Z"/>
  </g>
  <g>
    <path d="M432.51,149.66C347.37,24.4,289.82-2.35,230.16,.16S99.07,93.94,74.51,142.66C14.51,261.66-23.53,363.22,16.51,411.66s119.65,52,258.92,52c8.49,0,17.26-.07,26.26-.22,114.51-1.85,189.41-21.6,206.16-70.31,16.67-48.47,9.81-118.2-75.33-243.47Zm46,231c-17.8,33.43-121.23,54.03-123,51-5.96-10.19,9.34-94.89-8-137-14-34-188.84-26.94-185.79,25.23,2.79,47.77,17,95.34,9.79,106.77s-91.81-14.98-121.41-38.49-.59-120.51,29.41-194.51S198.95,17.9,238.73,19.78s95.78,44.88,172.17,144.03c19.09,24.78,96.22,163.15,67.61,216.85Z"/>
    <path d="M187.41,150.9c-1.23-1.38-2.76-2.53-4.28-3.56-.98-.62-2.03-.96-3.16-1.01-1.13-.25-2.26-.2-3.39,.15-1.11,.26-2.07,.77-2.89,1.52-.93,.6-1.66,1.39-2.19,2.39-.29,.68-.57,1.35-.86,2.03-.41,1.51-.41,3.01,0,4.52,.23,.56,.47,1.11,.7,1.67-.09,.2-.17,.41-.26,.61-.41,1.51-.41,3.01,0,4.52l.86,2.03c.76,1.28,1.77,2.29,3.05,3.05,.76,.58,1.72,.93,2.65,1.14,.9,.21,1.98,.41,2.96,.31,.81-.09,1.67-.17,2.47-.34,.14-.03,.28-.07,.41-.11,.93-.3,1.83-.73,2.72-1.13,1.06-.46,2.06-1.18,2.81-2.06,1.17-1.38,1.91-2.41,2.38-4.2,.43-1.66,.42-3.52-.05-5.16-.7-2.44-2.27-4.51-3.93-6.38Z"/>
    <path d="M306.84,160.33s.04-.07,.05-.11c.53-1.01,.78-2.11,.73-3.28,.04-1.17-.2-2.26-.73-3.28-.34-1.05-.93-1.97-1.76-2.74-.57-.44-1.15-.89-1.72-1.33-1.33-.77-2.76-1.16-4.29-1.16-.75,.1-1.51,.2-2.26,.3-1.44,.4-2.69,1.13-3.75,2.19-1.15,1.24-2.31,2.54-3.16,4.01-.59,1.03-1.09,2.15-1.39,3.3-.23,.89-.3,1.85-.4,2.76-.03,.25-.05,.5-.03,.76,.03,.46,.12,.95,.18,1.38,.06,.44,.1,.97,.21,1.44,.02,.1,.05,.2,.09,.3,.24,.73,.62,1.57,.95,2.26,.25,.52,.63,.93,.98,1.39,.33,.43,.65,.92,1.07,1.3,.8,.73,1.73,1.48,2.71,2,1.04,.55,2.16,.96,3.26,1.41,1.13,.35,2.26,.41,3.39,.15,1.13-.05,2.19-.39,3.16-1.01,.99-.53,1.79-1.26,2.39-2.19,.75-.82,1.26-1.79,1.52-2.89,.1-.75,.2-1.51,.3-2.26,0-1.54-.39-2.97-1.16-4.29-.1-.14-.21-.27-.31-.41Z"/>
    <path d="M250.73,206.61c-2.39,.11-4.57,1.98-4.51,4.51,.05,2.1,.08,4.21-.06,6.31-.04,.59-.09,1.17-.15,1.76-.09,.84,.06-.1-.12,.8-.16,.83-.32,1.65-.58,2.46-.05,.14-.28,.65-.28,.7-.14,.25-.29,.5-.43,.76,.34-.68-.07,.07-.29,.3-.33,.3-.39,.35-.18,.16,.2-.18,.11-.14-.19,.06-.22,.06-.59,.18-.67,.21-.18,.06-.24,.09-.28,.11-.04-.01-.1-.02-.29-.01-.44,.01-.88,.03-1.32,.02-.26,0-.52-.03-.78-.05-.85-.19-1.68-.36-2.51-.65-.15-.05-.3-.11-.45-.17-.03-.02-.02-.01-.09-.04-.46-.22-.92-.46-1.36-.72-.38-.22-.74-.48-1.12-.71-.17-.1-.23-.13-.26-.15-.03-.04-.08-.08-.23-.21-.67-.57-1.31-1.17-1.9-1.82-.24-.27-.47-.54-.7-.82-.04-.07-.48-.65-.49-.67-.5-.72-.95-1.48-1.37-2.25-.21-.39-.41-.78-.6-1.18-.04-.08-.23-.52-.3-.68-.36-.91-.68-1.83-.96-2.76-.68-2.26-3.19-3.91-5.55-3.15-2.28,.74-3.87,3.13-3.15,5.55,2.92,9.76,10.09,18.31,20.73,19.41,5.62,.58,10.83-1.84,13.08-7.16,2.02-4.78,2.02-10.29,1.88-15.4-.06-2.36-2.03-4.62-4.51-4.51Z"/>
  </g>
</svg>
